<svg xmlns="http://www.w3.org/2000/svg" width="1400" height="420" viewBox="0 0 1400 420" role="img" aria-labelledby="title desc">
  <title id="title">Zeus desktop coding agent banner</title>
  <desc id="desc">A quiet Zeus banner with a compact desktop shell and lightning mark.</desc>
  <defs>
    <linearGradient id="bg" x1="0" y1="0" x2="1" y2="1">
      <stop offset="0%" stop-color="#fbfbfe"/>
      <stop offset="100%" stop-color="#eef0ff"/>
    </linearGradient>
    <linearGradient id="accent" x1="0" y1="0" x2="1" y2="1">
      <stop offset="0%" stop-color="#5a38de"/>
      <stop offset="100%" stop-color="#7a5cff"/>
    </linearGradient>
    <filter id="shadow" x="-20%" y="-20%" width="140%" height="140%">
      <feDropShadow dx="0" dy="20" stdDeviation="22" flood-color="#101720" flood-opacity="0.12"/>
    </filter>
  </defs>
  <rect width="1400" height="420" rx="0" fill="url(#bg)"/>
  <circle cx="1150" cy="70" r="180" fill="#f4f2ff"/>
  <circle cx="125" cy="365" r="145" fill="#ffffff" opacity="0.72"/>
  <g filter="url(#shadow)">
    <rect x="276" y="72" width="848" height="276" rx="18" fill="#ffffff" stroke="#d9ddea"/>
    <rect x="276" y="72" width="184" height="276" rx="18" fill="#fbfbfe"/>
    <line x1="460" y1="72" x2="460" y2="348" stroke="#e5e7ef"/>
    <line x1="948" y1="72" x2="948" y2="348" stroke="#e5e7ef"/>
    <rect x="492" y="122" width="404" height="58" rx="10" fill="#fbfaff" stroke="#d8d0ff"/>
    <rect x="510" y="214" width="366" height="92" rx="10" fill="#111821"/>
    <rect x="492" y="318" width="404" height="22" rx="11" fill="#ffffff" stroke="#d9ddea"/>
    <rect x="304" y="128" width="128" height="26" rx="8" fill="#f4f2ff"/>
    <rect x="304" y="172" width="118" height="12" rx="6" fill="#d9ddea"/>
    <rect x="304" y="198" width="92" height="12" rx="6" fill="#d9ddea"/>
    <rect x="976" y="126" width="112" height="8" rx="4" fill="#5a38de"/>
    <rect x="976" y="160" width="128" height="12" rx="6" fill="#d9ddea"/>
    <rect x="976" y="190" width="98" height="12" rx="6" fill="#d9ddea"/>
  </g>
  <g transform="translate(128 132)">
    <rect width="92" height="92" rx="24" fill="url(#accent)"/>
    <path d="M53 15 30 50h20L39 77l29-43H48z" fill="none" stroke="#fff" stroke-width="8" stroke-linejoin="round" stroke-linecap="round"/>
  </g>
  <text x="248" y="190" font-family="Inter, Segoe UI, Arial, sans-serif" font-size="56" font-weight="700" fill="#111821">Zeus</text>
  <text x="250" y="232" font-family="Inter, Segoe UI, Arial, sans-serif" font-size="24" fill="#667085">A compact Tauri + React coding-agent shell</text>
</svg>
